<svg width="316" height="55" viewBox="0 0 316 55" fill="none" xmlns="http://www.w3.org/2000/svg">
<path d="M79.9635 14.631C80.3362 14.545 80.716 14.4877 81.103 14.459C81.49 14.4303 81.8698 14.416 82.2425 14.416C83.2602 14.416 84.1488 14.545 84.9085 14.803L85.145 15.1255L76.9105 34.755V44C76.4662 44.086 75.9932 44.1362 75.4915 44.1505C75.0042 44.1792 74.567 44.1935 74.18 44.1935C73.8073 44.1935 73.3558 44.1792 72.8255 44.1505C72.3095 44.1362 71.8437 44.086 71.428 44V34.6045L63.1935 15.276C64.3258 14.631 65.451 14.3085 66.569 14.3085C67.343 14.3085 67.945 14.4877 68.375 14.846C68.805 15.2043 69.1777 15.7848 69.493 16.5875L72.3525 23.6395C73.0405 25.3308 73.664 27.2228 74.223 29.3155H74.4595C74.7175 28.3695 75.04 27.3518 75.427 26.2625C75.814 25.1732 76.158 24.2487 76.459 23.489L79.9635 14.631ZM89.0819 14.631C89.4975 14.545 89.9634 14.4948 90.4794 14.4805C90.9954 14.4518 91.4325 14.4375 91.7909 14.4375C92.1922 14.4375 92.6437 14.4518 93.1454 14.4805C93.647 14.4948 94.1129 14.545 94.5429 14.631V44C94.1129 44.086 93.647 44.1362 93.1454 44.1505C92.6437 44.1792 92.1922 44.1935 91.7909 44.1935C91.4325 44.1935 90.9954 44.1792 90.4794 44.1505C89.9634 44.1362 89.4975 44.086 89.0819 44V14.631ZM120.933 39.4635C120.933 41.0545 120.683 42.2227 120.181 42.968C119.694 43.699 118.748 44.0645 117.343 44.0645H105.066C104.106 44.0645 103.346 43.7778 102.787 43.2045C102.228 42.6168 101.949 41.8142 101.949 40.7965V14.9105L102.228 14.631H120.009C120.081 15.0467 120.124 15.4337 120.138 15.792C120.167 16.1503 120.181 16.4872 120.181 16.8025C120.181 17.1035 120.145 17.4833 120.073 17.942C120.002 18.3863 119.894 18.8163 119.751 19.232H110.097C109.782 19.232 109.366 19.232 108.85 19.232C108.349 19.2177 107.833 19.2105 107.302 19.2105C107.302 19.7838 107.31 20.2783 107.324 20.694C107.338 21.0953 107.345 21.5827 107.345 22.156V26.972C107.861 26.972 108.37 26.972 108.872 26.972C109.374 26.9577 109.782 26.9505 110.097 26.9505H117.579C117.694 27.2945 117.773 27.6815 117.816 28.1115C117.873 28.5415 117.902 28.8998 117.902 29.1865C117.902 29.5018 117.873 29.8673 117.816 30.283C117.773 30.6987 117.694 31.0857 117.579 31.444H110.097C109.782 31.444 109.374 31.444 108.872 31.444C108.37 31.4297 107.861 31.4225 107.345 31.4225V37.0125C107.345 37.4568 107.338 37.8725 107.324 38.2595C107.31 38.6322 107.302 39.055 107.302 39.528V39.5495C107.747 39.5208 108.205 39.4993 108.678 39.485C109.166 39.4707 109.696 39.4635 110.269 39.4635H120.933ZM143.931 39.3345C143.931 41.1262 143.645 42.366 143.071 43.054C142.512 43.7277 141.566 44.0645 140.233 44.0645H129.591C128.645 44.0645 127.878 43.7778 127.29 43.2045C126.717 42.6312 126.43 41.8213 126.43 40.775V14.6955L126.71 14.3945H128.752C129.842 14.3945 130.637 14.674 131.139 15.233C131.655 15.792 131.913 16.6735 131.913 17.8775V39.485C133.26 39.3847 134.557 39.3345 135.804 39.3345H143.931ZM171.199 29.3155C171.199 30.9925 171.084 32.605 170.855 34.153C170.64 35.6867 170.195 37.12 169.522 38.453C168.862 39.786 167.866 40.9828 166.533 42.0435C165.903 42.5595 165.136 42.9823 164.233 43.312C163.33 43.6273 162.405 43.8567 161.459 44C160.528 44.1433 159.675 44.215 158.901 44.215C157.109 44.215 155.461 44.1935 153.956 44.1505C152.465 44.1218 150.781 44.086 148.903 44.043L148.624 43.7635V14.8675L148.903 14.588C150.767 14.5163 152.451 14.4733 153.956 14.459C155.461 14.4447 157.109 14.4375 158.901 14.4375C159.675 14.4375 160.535 14.5092 161.481 14.6525C162.427 14.7958 163.344 15.0252 164.233 15.3405C165.136 15.6558 165.903 16.0715 166.533 16.5875C167.852 17.6482 168.841 18.8522 169.5 20.1995C170.174 21.5325 170.625 22.973 170.855 24.521C171.084 26.0547 171.199 27.6528 171.199 29.3155ZM165.544 29.3155C165.544 28.0972 165.465 26.8717 165.308 25.639C165.15 24.4063 164.842 23.274 164.383 22.242C163.939 21.1957 163.272 20.3572 162.384 19.7265C161.495 19.0815 160.327 18.759 158.879 18.759C158.048 18.759 157.26 18.759 156.514 18.759C155.783 18.7447 154.973 18.7303 154.085 18.716V39.8935C154.973 39.8792 155.783 39.8792 156.514 39.8935C157.26 39.8935 158.048 39.8935 158.879 39.8935C160.327 39.8935 161.495 39.5782 162.384 38.9475C163.272 38.3025 163.939 37.4568 164.383 36.4105C164.842 35.3642 165.15 34.2247 165.308 32.992C165.465 31.745 165.544 30.5195 165.544 29.3155ZM174.632 41.42C174.632 41.162 174.668 40.7893 174.739 40.302C174.811 39.8147 174.918 39.4133 175.062 39.098C175.406 38.9117 175.85 38.7612 176.395 38.6465C176.954 38.5175 177.484 38.453 177.986 38.453C178.473 38.453 178.996 38.5175 179.555 38.6465C180.129 38.7612 180.58 38.9117 180.91 39.098C181.067 39.4133 181.182 39.8147 181.254 40.302C181.325 40.7893 181.361 41.162 181.361 41.42C181.361 41.678 181.325 42.0578 181.254 42.5595C181.182 43.0468 181.067 43.441 180.91 43.742C180.58 43.957 180.129 44.1218 179.555 44.2365C178.996 44.3512 178.473 44.4085 177.986 44.4085C177.484 44.4085 176.954 44.3512 176.395 44.2365C175.85 44.1218 175.406 43.957 175.062 43.742C174.918 43.441 174.811 43.0468 174.739 42.5595C174.668 42.0578 174.632 41.678 174.632 41.42ZM184.907 41.3985C184.979 40.6102 185.23 39.8362 185.66 39.0765C186.09 38.3025 186.57 37.6862 187.1 37.2275C188.333 38.0158 189.709 38.6967 191.228 39.27C192.762 39.829 194.281 40.1085 195.786 40.1085C197.334 40.1085 198.502 39.7645 199.291 39.0765C200.093 38.3742 200.495 37.5213 200.495 36.518C200.495 35.7297 200.229 34.9843 199.699 34.282C199.169 33.5797 198.287 32.9633 197.055 32.433L191.873 30.283C190.067 29.5233 188.612 28.5415 187.509 27.3375C186.405 26.1192 185.853 24.5497 185.853 22.629C185.853 20.9807 186.283 19.5115 187.143 18.2215C188.017 16.9172 189.207 15.8995 190.712 15.1685C192.217 14.4232 193.937 14.0505 195.872 14.0505C197.75 14.0505 199.52 14.2942 201.183 14.7815C202.845 15.2688 204.236 15.792 205.354 16.351C205.325 17.1393 205.131 17.9133 204.773 18.673C204.429 19.4183 203.985 20.0418 203.44 20.5435C202.322 19.9988 201.068 19.5258 199.678 19.1245C198.302 18.7088 197.047 18.501 195.915 18.501C194.467 18.501 193.357 18.845 192.583 19.533C191.823 20.221 191.443 21.0237 191.443 21.941C191.443 22.7437 191.715 23.4102 192.26 23.9405C192.819 24.4708 193.6 24.951 194.604 25.381L199.807 27.531C201.742 28.3337 203.297 29.4302 204.472 30.8205C205.662 32.1965 206.257 33.8377 206.257 35.744C206.257 37.421 205.855 38.926 205.053 40.259C204.264 41.592 203.067 42.6455 201.462 43.4195C199.857 44.1935 197.85 44.5805 195.442 44.5805C193.665 44.5805 191.837 44.301 189.96 43.742C188.082 43.183 186.398 42.4018 184.907 41.3985ZM216.885 44C216.44 44.086 215.967 44.1362 215.466 44.1505C214.964 44.1792 214.52 44.1935 214.133 44.1935C213.76 44.1935 213.316 44.1792 212.8 44.1505C212.284 44.1362 211.818 44.086 211.402 44V14.631C211.818 14.545 212.284 14.4948 212.8 14.4805C213.316 14.4518 213.76 14.4375 214.133 14.4375C214.52 14.4375 214.964 14.4518 215.466 14.4805C215.967 14.4948 216.44 14.545 216.885 14.631V23.3815C216.885 23.9835 216.877 24.521 216.863 24.994C216.849 25.467 216.842 25.9902 216.842 26.5635C217.085 26.5635 217.472 26.5563 218.003 26.542C218.533 26.5277 218.92 26.5205 219.164 26.5205H225.528C225.771 26.5205 226.158 26.5277 226.689 26.542C227.219 26.5563 227.606 26.5635 227.85 26.5635C227.85 25.9902 227.842 25.467 227.828 24.994C227.814 24.521 227.807 23.9835 227.807 23.3815V14.631C228.237 14.545 228.702 14.4948 229.204 14.4805C229.706 14.4518 230.15 14.4375 230.537 14.4375C230.91 14.4375 231.354 14.4518 231.87 14.4805C232.4 14.4948 232.873 14.545 233.289 14.631V44C232.845 44.086 232.386 44.1362 231.913 44.1505C231.44 44.1792 230.996 44.1935 230.58 44.1935C230.179 44.1935 229.727 44.1792 229.226 44.1505C228.724 44.1362 228.251 44.086 227.807 44V34.3035C227.807 33.7015 227.814 33.164 227.828 32.691C227.842 32.218 227.85 31.6948 227.85 31.1215C227.606 31.1215 227.219 31.1287 226.689 31.143C226.158 31.1573 225.771 31.1645 225.528 31.1645H219.164C218.92 31.1645 218.533 31.1573 218.003 31.143C217.472 31.1287 217.085 31.1215 216.842 31.1215C216.842 31.6948 216.849 32.218 216.863 32.691C216.877 33.164 216.885 33.7015 216.885 34.3035V44ZM247.08 37.2705C246.879 37.2705 246.549 37.2705 246.091 37.2705C245.632 37.2562 245.231 37.2418 244.887 37.2275L242.78 44.043C242.436 44.129 242.063 44.1792 241.662 44.1935C241.26 44.2222 240.852 44.2365 240.436 44.2365C239.977 44.2365 239.504 44.2078 239.017 44.1505C238.53 44.0932 238.121 44.0072 237.792 43.8925L237.598 43.613L247.23 14.631C247.66 14.5593 248.176 14.5092 248.778 14.4805C249.394 14.4518 249.932 14.4375 250.391 14.4375C250.821 14.4375 251.344 14.459 251.96 14.502C252.576 14.5307 253.092 14.5808 253.508 14.6525L262.99 43.656C262.617 43.8853 262.137 44.0502 261.549 44.1505C260.961 44.2652 260.388 44.3225 259.829 44.3225C258.969 44.3225 258.295 44.129 257.808 43.742C257.321 43.3407 256.912 42.5595 256.583 41.3985L255.293 37.2275C254.949 37.2418 254.54 37.2562 254.067 37.2705C253.594 37.2705 253.257 37.2705 253.057 37.2705H247.08ZM248.112 26.8215L246.241 32.863C246.556 32.863 246.915 32.863 247.316 32.863C247.732 32.8487 248.033 32.8415 248.219 32.8415H252.068C252.24 32.8415 252.519 32.8487 252.906 32.863C253.293 32.863 253.644 32.863 253.96 32.863L252.476 28.0255C252.103 26.7928 251.709 25.4312 251.294 23.9405C250.878 22.4498 250.512 21.081 250.197 19.834H249.939C249.724 20.8947 249.43 22.0915 249.058 23.4245C248.699 24.7575 248.384 25.8898 248.112 26.8215ZM287.309 23.446C287.309 24.7933 287.058 25.9973 286.557 27.058C286.055 28.1187 285.388 29.0073 284.557 29.724C283.74 30.4407 282.859 30.9638 281.913 31.2935C282.658 31.5658 283.289 32.046 283.805 32.734C284.321 33.4077 284.743 34.1817 285.073 35.056L286.729 39.5495C287.015 40.3378 287.316 40.9757 287.632 41.463C287.947 41.9503 288.312 42.3588 288.728 42.6885C288.384 43.1902 287.861 43.5915 287.159 43.8925C286.471 44.1792 285.775 44.3225 285.073 44.3225C284.055 44.3225 283.317 44.0502 282.859 43.5055C282.4 42.9608 281.977 42.151 281.59 41.076L279.677 35.787C279.361 34.884 278.917 34.1315 278.344 33.5295C277.785 32.9132 276.874 32.605 275.613 32.605H272.754V44C272.324 44.086 271.858 44.1362 271.356 44.1505C270.869 44.1792 270.424 44.1935 270.023 44.1935C269.665 44.1935 269.228 44.1792 268.712 44.1505C268.21 44.1362 267.751 44.086 267.336 44V14.8675L267.615 14.588C269.321 14.545 270.976 14.5092 272.582 14.4805C274.187 14.4518 275.756 14.4375 277.29 14.4375C280.271 14.4375 282.687 15.19 284.536 16.695C286.385 18.1857 287.309 20.436 287.309 23.446ZM272.754 18.63V28.3265C273.542 28.2978 274.316 28.2763 275.076 28.262C275.85 28.2333 276.459 28.219 276.903 28.219C278.193 28.219 279.182 27.9897 279.87 27.531C280.558 27.058 281.031 26.456 281.289 25.725C281.561 24.994 281.698 24.2343 281.698 23.446C281.698 22.629 281.561 21.855 281.289 21.124C281.031 20.393 280.558 19.8053 279.87 19.361C279.182 18.9023 278.193 18.673 276.903 18.673C276.358 18.673 275.699 18.673 274.925 18.673C274.165 18.6587 273.442 18.6443 272.754 18.63ZM312.376 39.4635C312.376 41.0545 312.125 42.2227 311.623 42.968C311.136 43.699 310.19 44.0645 308.785 44.0645H296.509C295.548 44.0645 294.789 43.7778 294.23 43.2045C293.671 42.6168 293.391 41.8142 293.391 40.7965V14.9105L293.671 14.631H311.451C311.523 15.0467 311.566 15.4337 311.58 15.792C311.609 16.1503 311.623 16.4872 311.623 16.8025C311.623 17.1035 311.587 17.4833 311.516 17.942C311.444 18.3863 311.337 18.8163 311.193 19.232H301.54C301.224 19.232 300.809 19.232 300.293 19.232C299.791 19.2177 299.275 19.2105 298.745 19.2105C298.745 19.7838 298.752 20.2783 298.766 20.694C298.781 21.0953 298.788 21.5827 298.788 22.156V26.972C299.304 26.972 299.813 26.972 300.314 26.972C300.816 26.9577 301.224 26.9505 301.54 26.9505H309.022C309.136 27.2945 309.215 27.6815 309.258 28.1115C309.316 28.5415 309.344 28.8998 309.344 29.1865C309.344 29.5018 309.316 29.8673 309.258 30.283C309.215 30.6987 309.136 31.0857 309.022 31.444H301.54C301.224 31.444 300.816 31.444 300.314 31.444C299.813 31.4297 299.304 31.4225 298.788 31.4225V37.0125C298.788 37.4568 298.781 37.8725 298.766 38.2595C298.752 38.6322 298.745 39.055 298.745 39.528V39.5495C299.189 39.5208 299.648 39.4993 300.121 39.485C300.608 39.4707 301.138 39.4635 301.712 39.4635H312.376Z" fill="#4791D1"/>
<path d="M45.3814 47.123C44.9504 47.5283 44.4973 47.9261 44.0339 48.3062L42.9334 46.9667C43.3626 46.6136 43.7837 46.2439 44.1963 45.8583L45.382 47.1224L45.3814 47.123ZM46.6492 45.8528L45.3838 44.6683C45.7645 44.2619 46.1361 43.8364 46.4886 43.4042L47.8305 44.5022C47.4535 44.9626 47.0563 45.4175 46.6498 45.8521L46.6492 45.8528ZM42.6091 49.3999C42.1236 49.7469 41.6215 50.081 41.1157 50.3943L40.2035 48.9193C40.6768 48.6262 41.1439 48.316 41.6013 47.9899L42.6097 49.4005L42.6091 49.3999ZM48.9212 43.0744L47.5069 42.0696C47.833 41.611 48.142 41.1451 48.4332 40.67L49.9107 41.5773C49.6023 42.0782 49.2694 42.5827 48.9206 43.0738L48.9212 43.0744ZM39.5561 51.2857C39.0276 51.5652 38.4839 51.8295 37.9401 52.0716L37.2338 50.4887C37.7439 50.2607 38.2484 50.0148 38.7469 49.753L39.5561 51.2857ZM50.7984 40.0189L49.2645 39.2109C49.5238 38.7198 49.7696 38.2116 49.9953 37.7003L51.5806 38.4016C51.3385 38.9491 51.0761 39.4935 50.7984 40.0189ZM36.2719 52.7478C35.7141 52.9526 35.1396 53.1408 34.5646 53.3088L34.0784 51.6443C34.6161 51.488 35.1525 51.3108 35.6748 51.1195L36.2707 52.7478H36.2719ZM52.2519 36.7384L50.6224 36.1462C50.8149 35.619 50.9902 35.0819 51.1441 34.5516L52.8098 35.0341C52.6449 35.6024 52.4579 36.1756 52.2525 36.739L52.2519 36.7384ZM32.8253 53.7557C32.2374 53.8851 31.6433 53.996 31.0603 54.0849L30.7998 52.3702C31.3534 52.2862 31.9039 52.1832 32.4526 52.0624L32.8265 53.7557H32.8253ZM53.2512 33.2967L51.5579 32.9227C51.6763 32.3851 51.7793 31.8309 51.8626 31.2742L53.5767 31.5305C53.4872 32.1264 53.3781 32.721 53.2506 33.2961L53.2512 33.2967ZM29.2757 54.2952C28.6853 54.3449 28.0827 54.3761 27.4844 54.3859L27.4525 52.6534C28.0116 52.6424 28.5719 52.6142 29.131 52.5676L29.2757 54.2952ZM53.7858 29.7496L52.0582 29.6073C52.1042 29.0488 52.1324 28.4848 52.141 27.9306L53.8753 27.957C53.8667 28.5504 53.8361 29.1537 53.787 29.7496H53.7858ZM25.6887 54.3596C25.0922 54.3308 24.4914 54.2817 23.9004 54.213L24.099 52.4916C24.6551 52.5559 25.2142 52.6013 25.7727 52.6289L25.6893 54.3602L25.6887 54.3596ZM53.8434 26.1632L52.1121 26.2465C52.0852 25.6985 52.0386 25.1357 51.973 24.5735L53.6945 24.3724C53.765 24.9738 53.814 25.5758 53.8428 26.1625L53.8434 26.1632ZM22.1262 53.9482C21.545 53.8415 20.9553 53.7128 20.3735 53.565L20.8002 51.884C21.3452 52.0232 21.8963 52.1427 22.4395 52.2421L22.1274 53.9482H22.1262ZM53.4278 22.5952L51.7229 22.9133C51.6205 22.3634 51.5003 21.8153 51.3612 21.2716L53.0415 20.8418C53.1881 21.4162 53.318 22.006 53.4284 22.5945L53.4278 22.5952ZM18.6496 53.066C18.0849 52.8827 17.5185 52.6755 16.9643 52.4536L17.611 50.8443C18.1315 51.0533 18.6563 51.2446 19.1872 51.4175L18.6496 53.066ZM52.537 19.1173L50.8897 19.6562C50.7162 19.1259 50.5219 18.5956 50.3128 18.0788L51.9209 17.4283C52.144 17.9813 52.3519 18.5496 52.537 19.1173ZM15.325 51.7302C14.7879 51.4714 14.2527 51.1913 13.7347 50.8952L14.5923 49.3889C15.076 49.6629 15.5751 49.9253 16.0784 50.1675L15.325 51.7302ZM51.1926 15.7865L49.6323 16.5424C49.3883 16.0397 49.1247 15.5395 48.8488 15.0576L50.3551 14.1975C50.6488 14.7131 50.9302 15.247 51.1926 15.7865ZM12.2039 49.9566C11.6987 49.6231 11.2064 49.273 10.7393 48.9162L11.7913 47.5381C12.2278 47.8716 12.6876 48.1989 13.1584 48.5104L12.2026 49.9566H12.2039ZM49.4129 12.6679L47.9685 13.628C47.6601 13.1639 47.334 12.7077 46.9925 12.2608L48.3694 11.2076C48.7311 11.6809 49.0824 12.1719 49.4122 12.6685L49.4129 12.6679ZM9.34888 47.7833C8.90013 47.3909 8.45872 46.979 8.03694 46.5584L9.26122 45.3304C9.65971 45.7289 10.0698 46.1109 10.4898 46.4769L9.34888 47.7833ZM47.2316 9.81842L45.9288 10.963C45.5622 10.5449 45.1785 10.1354 44.7794 9.73627L44.7021 9.65903L45.9282 8.43291L46.0055 8.51015C46.4236 8.92826 46.8362 9.36783 47.231 9.81781L47.2316 9.81842ZM8.10989 44.1068L6.80776 45.252C6.40927 44.7983 6.02488 44.3318 5.66747 43.8652L7.04317 42.8108C7.37729 43.2467 7.73593 43.6825 8.10928 44.1074L8.10989 44.1068ZM43.4748 8.51751C43.0548 8.15151 42.6165 7.79533 42.172 7.45876L43.2185 6.07754C43.6942 6.43679 44.1632 6.81873 44.6132 7.20863L43.4754 8.51812L43.4748 8.51751ZM6.06412 41.4455L4.62098 42.4068C4.2936 41.9151 3.97543 41.402 3.67625 40.8821L5.18009 40.0171C5.45841 40.5001 5.7533 40.9765 6.06473 41.4449L6.06412 41.4455ZM40.7988 6.49013C40.3335 6.18421 39.8516 5.88994 39.366 5.61529L40.22 4.10533C40.7393 4.39898 41.2549 4.71348 41.7521 5.04147L40.7988 6.49013ZM4.39414 38.5347L2.83575 39.2949C2.57275 38.7548 2.3263 38.2018 2.10253 37.6519L3.70936 37.0002C3.9178 37.5139 4.14831 38.0301 4.39414 38.5347ZM37.8769 4.83855C37.373 4.597 36.8568 4.37017 36.3431 4.16541L36.9855 2.55429C37.5361 2.77376 38.0878 3.01654 38.6273 3.27525L37.8769 4.83855ZM3.12757 35.4228L1.4815 35.9654C1.29207 35.3934 1.12225 34.814 0.97573 34.2408L2.6549 33.8098C2.79222 34.3444 2.95162 34.8876 3.12818 35.4234L3.12757 35.4228ZM34.7657 3.59465C34.2323 3.42177 33.6946 3.26666 33.1521 3.13118L33.5757 1.44956C34.1508 1.59424 34.7307 1.76099 35.299 1.9443L34.7657 3.59465ZM2.29013 32.1687L0.585825 32.4875C0.475474 31.8953 0.383515 31.2981 0.314853 30.7121L2.03632 30.5085C2.10131 31.0566 2.18714 31.6145 2.29074 32.1681L2.29013 32.1687ZM31.5128 2.77683C30.9616 2.6769 30.4025 2.59475 29.852 2.53222L30.0469 0.809529C30.6361 0.876352 31.2332 0.963406 31.8224 1.07069L31.5128 2.77806V2.77683ZM1.89225 28.833L0.160362 28.9232C0.129709 28.3334 0.118061 27.7295 0.126644 27.1287L1.86038 27.152C1.85302 27.7124 1.86405 28.2727 1.89287 28.8324L1.89225 28.833ZM28.1783 2.39857C27.6174 2.37344 27.0571 2.36608 26.4961 2.3765L26.463 0.642777C27.0497 0.631128 27.6536 0.6391 28.2556 0.666075L28.1777 2.39919L28.1783 2.39857ZM1.94069 25.4753L0.213085 25.3355C0.260903 24.747 0.328953 24.148 0.416007 23.5534L2.13135 23.806C2.0492 24.3602 1.98544 24.9168 1.94007 25.4759L1.94069 25.4753ZM24.82 2.46601C24.2615 2.51444 23.7049 2.58188 23.1506 2.66648L22.8883 0.952373C23.4737 0.862253 24.0733 0.78991 24.6698 0.739026L24.8206 2.4654L24.82 2.46601ZM2.43297 22.1556L0.738476 21.7878C0.864153 21.2072 1.0119 20.6217 1.17682 20.0485L2.84311 20.5292C2.68923 21.0644 2.55068 21.6124 2.43297 22.1556ZM21.4997 2.9773C20.9565 3.09869 20.409 3.2403 19.8726 3.39786L19.3828 1.73463C19.956 1.56604 20.5409 1.414 21.1214 1.28465L21.4991 2.97669L21.4997 2.9773ZM3.36114 18.9334L1.73041 18.3424C1.93394 17.7808 2.15832 17.2205 2.39803 16.6779L3.98401 17.3774C3.76025 17.8844 3.55119 18.4074 3.36114 18.9334ZM18.2768 3.92693C17.7533 4.12066 17.2328 4.33216 16.7197 4.56206L16.0116 2.97975C16.5541 2.73637 17.1132 2.50831 17.6754 2.30049L18.2768 3.92693ZM4.71171 15.8638L3.17539 15.0607C3.45249 14.531 3.74982 14.0056 4.06064 13.4986L5.53873 14.4041C5.24875 14.878 4.97042 15.3684 4.71171 15.8638ZM15.2097 5.29957C14.7168 5.56196 14.2264 5.84396 13.7543 6.13701L12.8396 4.66444C13.3448 4.35056 13.8683 4.04893 14.3956 3.76937L15.2103 5.30018L15.2097 5.29957ZM6.46383 13.002L5.04889 11.9991C5.39159 11.5154 5.75698 11.0347 6.13523 10.5706L7.47906 11.6655C7.12594 12.0996 6.78446 12.549 6.46383 13.002ZM12.3577 7.07131C11.9059 7.39562 11.4621 7.73648 11.0274 8.09512L9.92394 6.75742C10.3837 6.37855 10.8619 6.01072 11.3462 5.6625L12.3577 7.07131ZM8.58379 10.3977L7.31415 9.2164C7.53669 8.97669 7.7629 8.74189 7.99709 8.50893C8.18898 8.31704 8.38332 8.12761 8.58072 7.94247L9.76822 9.20598C9.57756 9.38561 9.39119 9.5732 9.20175 9.75651C8.99025 9.96801 8.78487 10.1807 8.58502 10.3965L8.58379 10.3977Z" fill="black"/>
<path d="M27.0041 46.0082C37.4998 46.0082 46.0082 37.4998 46.0082 27.0041C46.0082 16.5084 37.4998 8 27.0041 8C16.5084 8 8 16.5084 8 27.0041C8 37.4998 16.5084 46.0082 27.0041 46.0082Z" fill="url(#paint0_linear_91_6315)"/>
<path d="M33.2617 28.7778C33.0537 28.787 32.8539 28.8523 32.6892 28.9649L26.6637 33.0087L20.6332 28.9612C20.4396 28.8319 20.2004 28.768 19.9583 28.7808C19.7163 28.7936 19.4874 28.8824 19.3126 29.0311C19.1379 29.1799 19.0288 29.3789 19.005 29.5924C18.9811 29.8059 19.044 30.0199 19.1824 30.1961L25.8305 38.6143C25.9244 38.7334 26.0495 38.8306 26.195 38.8978C26.3405 38.9649 26.5022 39 26.6663 39C26.8304 39 26.9921 38.9649 27.1376 38.8978C27.2831 38.8306 27.4081 38.7334 27.5021 38.6143L34.1382 30.2104C34.2484 30.0764 34.3147 29.9182 34.33 29.7531C34.3452 29.5879 34.3087 29.4223 34.2246 29.2743C34.1404 29.1263 34.0118 29.0017 33.8529 28.9141C33.694 28.8265 33.5109 28.7793 33.3237 28.7778H33.2617ZM26.6637 38.0972L20.0148 29.679L26.6637 34.1399L33.3126 29.6797L26.6637 38.0972Z" fill="white"/>
<path d="M20.6318 26.8668L26.1111 31.1418C26.2703 31.266 26.4658 31.3333 26.6668 31.3333C26.8679 31.3333 27.0633 31.266 27.2225 31.1418L32.7019 26.866C32.8784 26.7282 32.9986 26.5296 33.0399 26.308C33.0811 26.0864 33.0404 25.8571 32.9255 25.6639L27.4461 16.4454C27.3652 16.3095 27.2509 16.1971 27.1144 16.1191C26.9778 16.041 26.8237 16 26.6668 16C26.51 16 26.3558 16.041 26.2193 16.1191C26.0827 16.1971 25.9684 16.3095 25.8875 16.4454L20.4081 25.6639C20.293 25.8572 20.2522 26.0866 20.2934 26.3084C20.3347 26.5302 20.4551 26.7289 20.6318 26.8668ZM26.6668 16.92L31.7331 25.4438L26.8548 23.2067C26.7954 23.1791 26.7307 23.1649 26.6653 23.1649C26.5999 23.1649 26.5352 23.1791 26.4758 23.2067L21.5975 25.4438L26.6668 16.92ZM26.6668 24.1313L31.7384 26.4558L26.6668 30.4134L21.5953 26.4558L26.6668 24.1313Z" fill="white"/>
<path d="M16.4459 16.9578C18.2677 15.136 18.2677 12.1823 16.4459 10.3605C14.6241 8.53869 11.6704 8.53869 9.84853 10.3605C8.02673 12.1823 8.02673 15.136 9.84853 16.9578C11.6704 18.7796 14.6241 18.7796 16.4459 16.9578Z" fill="black"/>
<path d="M24.3628 48.6248C26.1846 46.803 26.1846 43.8493 24.3628 42.0275C22.541 40.2057 19.5873 40.2057 17.7655 42.0275C15.9437 43.8493 15.9437 46.803 17.7655 48.6248C19.5873 50.4466 22.541 50.4466 24.3628 48.6248Z" fill="black"/>
<path d="M48.1128 24.8739C49.9346 23.0521 49.9346 20.0983 48.1128 18.2765C46.291 16.4547 43.3373 16.4547 41.5155 18.2765C39.6937 20.0983 39.6937 23.0521 41.5155 24.8739C43.3373 26.6957 46.291 26.6957 48.1128 24.8739Z" fill="black"/>
<path d="M18.1274 11.1066C25.3634 7.17847 34.3081 8.42932 40.1949 14.3162C40.916 15.0372 41.5757 15.817 42.1688 16.6411C42.7513 16.329 43.3787 16.1317 44.018 16.04C43.2831 14.9528 42.4472 13.9282 41.515 12.996C34.9737 6.45474 25.0005 5.11878 16.998 9.60101C17.0329 9.63466 17.0706 9.66302 17.1049 9.69733C17.5291 10.1216 17.8688 10.5986 18.1281 11.1059L18.1274 11.1066Z" fill="black"/>
<path d="M13.8057 40.7059C7.9189 34.8191 6.66936 25.8744 10.5968 18.6378C10.0895 18.3785 9.61177 18.0394 9.18756 17.6152C9.15326 17.5809 9.12423 17.544 9.09124 17.5083C4.60901 25.5096 5.94498 35.4841 12.4863 42.0253C13.4191 42.9582 14.443 43.7934 15.5303 44.5284C15.6213 43.8884 15.8186 43.2623 16.1313 42.6791C15.3066 42.0867 14.5275 41.4263 13.8064 40.7052L13.8057 40.7059Z" fill="black"/>
<path d="M40.1967 40.7059C36.5807 44.3219 31.6736 46.276 26.591 46.1652C26.4947 46.8025 26.2915 47.4252 25.9762 48.0045C31.77 48.2935 37.4034 46.1394 41.5168 42.026C45.6303 37.9126 47.7883 32.2804 47.4973 26.4847C46.9168 26.8013 46.292 27.0052 45.654 27.1008C45.7682 32.1841 43.8206 37.0833 40.1974 40.7065L40.1967 40.7059Z" fill="black"/>
<defs>
<linearGradient id="paint0_linear_91_6315" x1="27.0041" y1="8" x2="27.0041" y2="46.0083" gradientUnits="userSpaceOnUse">
<stop offset="0.165116" stop-color="#4791D1"/>
<stop offset="0.54622" stop-color="#4791D1"/>
<stop offset="0.773824" stop-color="#225683"/>
</linearGradient>
</defs>
</svg>
