<svg width="140" height="141" viewBox="0 0 140 141" fill="none" xmlns="http://www.w3.org/2000/svg">
<circle cx="70" cy="70.4615" r="70" fill="url(#paint0_linear_77_5883)"/>
<g filter="url(#filter0_d_77_5883)">
<path d="M37.9024 32.0006C33.5587 32.0006 30 35.8034 30 40.4451V100.612C30 104.669 33.1181 108.001 36.9146 108.001H104.085C107.882 108.001 111 104.669 111 100.612V52.0562C111 47.9992 107.882 44.6673 104.085 44.6673H99.1463V34.1117C99.1462 33.0063 98.2052 32.0007 97.1707 32.0006H37.9024ZM37.9024 36.2228H95.1951V44.6673H37.9024C35.6793 44.6673 33.9512 42.8207 33.9512 40.4451C33.9512 38.0694 35.6793 36.2228 37.9024 36.2228ZM33.9512 47.7349C35.1157 48.4597 36.4658 48.8895 37.9024 48.8895C60.1519 48.8684 84.9621 48.8895 104.085 48.8895C105.761 48.8895 107.049 50.2653 107.049 52.0562V64.7228H78.4024C75.7004 64.7228 73.4634 67.1132 73.4634 70.0006V82.6673C73.4634 85.5546 75.7004 87.9451 78.4024 87.9451H107.049V100.612C107.049 102.403 105.761 103.778 104.085 103.778H36.9146C35.2387 103.778 33.9512 102.403 33.9512 100.612V47.7349ZM78.4024 68.9451H107.049V83.7228H78.4024C77.821 83.7228 77.4146 83.2886 77.4146 82.6673V70.0006C77.4146 69.3793 77.821 68.9438 78.4024 68.9451ZM88.2805 72.1117C86.0983 72.1117 84.3293 74.0021 84.3293 76.3339C84.3293 78.6659 86.0983 80.5562 88.2805 80.5562C90.4626 80.5562 92.2317 78.6659 92.2317 76.3339C92.2317 74.0021 90.4626 72.1117 88.2805 72.1117Z" fill="white"/>
<path d="M106.549 52.0562V64.2228H78.4024C75.3935 64.2228 72.9634 66.8689 72.9634 70.0006V82.6673C72.9634 85.799 75.3935 88.4451 78.4024 88.4451H106.549V100.612C106.549 102.158 105.454 103.278 104.085 103.278H36.9146C35.5456 103.278 34.4512 102.158 34.4512 100.612V48.5822C35.5027 49.0945 36.6713 49.3895 37.9024 49.3895H37.9029C53.0808 49.3751 69.4501 49.3803 84.3932 49.3851C91.3551 49.3874 98.0074 49.3895 104.085 49.3895C105.454 49.3895 106.549 50.5097 106.549 52.0562ZM78.4014 69.4451H78.4024H106.549V83.2228H78.4024C78.2419 83.2228 78.1299 83.1658 78.0556 83.0864C77.979 83.0046 77.9146 82.8681 77.9146 82.6673V70.0006C77.9146 69.7996 77.9791 69.6628 78.0557 69.5809C78.13 69.5014 78.2416 69.4447 78.4014 69.4451ZM78.4024 68.9451H106.549H78.4024ZM37.9024 31.5006C33.2518 31.5006 29.5 35.559 29.5 40.4451V100.612C29.5 104.913 32.8112 108.501 36.9146 108.501H104.085C108.189 108.501 111.5 104.913 111.5 100.612V52.0562C111.5 47.7549 108.189 44.1673 104.085 44.1673H99.6463V34.1117C99.6462 32.7619 98.512 31.5007 97.1708 31.5006H37.9024ZM37.9024 36.7228H94.6951V44.1673H37.9024C35.9862 44.1673 34.4512 42.5763 34.4512 40.4451C34.4512 38.3138 35.9862 36.7228 37.9024 36.7228ZM88.2805 71.6117C85.7915 71.6117 83.8293 73.7577 83.8293 76.3339C83.8293 78.9103 85.7915 81.0562 88.2805 81.0562C90.7695 81.0562 92.7317 78.9103 92.7317 76.3339C92.7317 73.7577 90.7695 71.6117 88.2805 71.6117Z" stroke="white"/>
</g>
<defs>
<filter id="filter0_d_77_5883" x="27" y="31.0006" width="87" height="82" filterUnits="userSpaceOnUse" color-interpolation-filters="sRGB">
<feFlood flood-opacity="0" result="BackgroundImageFix"/>
<feColorMatrix in="SourceAlpha" type="matrix" values="0 0 0 0 0 0 0 0 0 0 0 0 0 0 0 0 0 0 127 0" result="hardAlpha"/>
<feOffset dy="2"/>
<feGaussianBlur stdDeviation="1"/>
<feComposite in2="hardAlpha" operator="out"/>
<feColorMatrix type="matrix" values="0 0 0 0 0 0 0 0 0 0 0 0 0 0 0 0 0 0 0.25 0"/>
<feBlend mode="normal" in2="BackgroundImageFix" result="effect1_dropShadow_77_5883"/>
<feBlend mode="normal" in="SourceGraphic" in2="effect1_dropShadow_77_5883" result="shape"/>
</filter>
<linearGradient id="paint0_linear_77_5883" x1="70" y1="0.461548" x2="70" y2="140.462" gradientUnits="userSpaceOnUse">
<stop offset="0.165116" stop-color="#4791D1"/>
<stop offset="0.54622" stop-color="#4791D1"/>
<stop offset="0.773824" stop-color="#225683"/>
</linearGradient>
</defs>
</svg>
