<svg width="141" height="141" viewBox="0 0 141 141" fill="none" xmlns="http://www.w3.org/2000/svg">
<circle cx="70.0771" cy="70.01" r="70" fill="url(#paint0_linear_77_5890)"/>
<g filter="url(#filter0_d_77_5890)">
<path d="M90.8564 43.2968L43.0534 91.564C41.6468 92.9831 41.6468 95.2845 43.0534 96.7036C43.7566 97.4137 44.677 97.7682 45.5985 97.7682C46.5199 97.7682 47.4403 97.4137 48.1436 96.7036L95.9466 48.4365C97.3532 47.0174 97.3532 44.7159 95.9466 43.2968C94.5401 41.8777 92.263 41.8777 90.8564 43.2968ZM83.899 75.3825C81.4757 75.3825 79.1997 76.3353 77.4875 78.063C75.7741 79.793 74.8316 82.0922 74.8316 84.5379C74.8316 86.9836 75.7753 89.2827 77.4875 91.0116C79.1997 92.7416 81.4768 93.6932 83.899 93.6932C86.3211 93.6932 88.5982 92.7405 90.3104 91.0116C93.8457 87.4421 93.8457 81.6337 90.3115 78.0642C88.5982 76.3353 86.3211 75.3825 83.899 75.3825ZM55.101 64.618C57.5243 64.618 59.8003 63.6652 61.5125 61.9363C63.2259 60.2075 64.1673 57.9083 64.1684 55.4626C64.1684 53.0158 63.2248 50.7177 61.5125 48.9889C59.8003 47.2589 57.5232 46.3073 55.101 46.3073C52.6789 46.3073 50.4018 47.26 48.6896 48.9889C46.9762 50.7177 46.0348 53.0169 46.0348 55.4626C46.0348 57.9083 46.9773 60.2075 48.6885 61.9363C50.4018 63.6652 52.6789 64.618 55.101 64.618ZM69.5 18.0002C41.1019 18.0002 18 41.3264 18 70.0002C18 98.6741 41.1019 122 69.5 122C97.8981 122 121 98.6741 121 70.0002C121 41.3264 97.8981 18.0002 69.5 18.0002ZM69.5 114.731C45.0724 114.731 25.1989 94.665 25.1989 70.0002C25.1989 45.3355 45.0724 25.2691 69.5 25.2691C93.9276 25.2691 113.801 45.3355 113.801 70.0002C113.801 94.665 93.9276 114.731 69.5 114.731Z" fill="white"/>
</g>
<defs>
<filter id="filter0_d_77_5890" x="16" y="18.0002" width="107" height="108" filterUnits="userSpaceOnUse" color-interpolation-filters="sRGB">
<feFlood flood-opacity="0" result="BackgroundImageFix"/>
<feColorMatrix in="SourceAlpha" type="matrix" values="0 0 0 0 0 0 0 0 0 0 0 0 0 0 0 0 0 0 127 0" result="hardAlpha"/>
<feOffset dy="2"/>
<feGaussianBlur stdDeviation="1"/>
<feComposite in2="hardAlpha" operator="out"/>
<feColorMatrix type="matrix" values="0 0 0 0 0 0 0 0 0 0 0 0 0 0 0 0 0 0 0.25 0"/>
<feBlend mode="normal" in2="BackgroundImageFix" result="effect1_dropShadow_77_5890"/>
<feBlend mode="normal" in="SourceGraphic" in2="effect1_dropShadow_77_5890" result="shape"/>
</filter>
<linearGradient id="paint0_linear_77_5890" x1="70.0771" y1="0.0100098" x2="70.0771" y2="140.01" gradientUnits="userSpaceOnUse">
<stop offset="0.165116" stop-color="#4791D1"/>
<stop offset="0.54622" stop-color="#4791D1"/>
<stop offset="0.773824" stop-color="#225683"/>
</linearGradient>
</defs>
</svg>
