<svg width="95" height="95" viewBox="0 0 95 95" fill="none" xmlns="http://www.w3.org/2000/svg">
<circle cx="47.5" cy="47.5" r="45.5" fill="white" stroke="#F3F3F3" stroke-width="4"/>
<path d="M54.0247 23.7222L75.2229 60.9537C78.0328 65.878 74.4688 72.003 68.8016 72.003H26.4021C20.7349 72.003 17.1708 65.878 19.9808 60.9537L41.179 23.7222C43.9999 18.7569 51.2022 18.7616 54.0247 23.7222ZM71.7488 62.9259L50.5506 25.6945C49.2553 23.4193 45.9484 23.4193 44.6531 25.6945L23.4549 62.9259C22.1549 65.209 23.7704 67.9954 26.4021 67.9954H68.8016C71.4333 67.9954 73.0488 65.209 71.7488 62.9259Z" fill="#4791D1"/>
<path d="M45.5981 38.2822C45.5981 37.1762 46.4959 36.2784 47.6018 36.2784C48.7078 36.2784 49.6055 37.1762 49.6055 38.2822V52.7049C49.6055 53.8109 48.7078 54.7087 47.6018 54.7087C46.4959 54.7087 45.5981 53.8109 45.5981 52.7049V38.2822Z" fill="#4791D1"/>
<path d="M50.1359 60.6144C50.1359 62.0218 48.9999 63.1578 47.6021 63.1578C46.2042 63.1578 45.0698 62.0218 45.0698 60.6239C45.0698 59.207 46.2042 58.071 47.6021 58.071C48.9999 58.071 50.1359 59.207 50.1359 60.6144Z" fill="#4791D1"/>
</svg>
