<svg width="42" height="42" viewBox="0 0 42 42" fill="none" xmlns="http://www.w3.org/2000/svg">
<path d="M41.5 20.994C41.5 32.3114 32.322 41.4863 21 41.4863C9.67799 41.4863 0.5 32.3114 0.5 20.994C0.5 9.67668 9.67799 0.501831 21 0.501831C32.322 0.501831 41.5 9.67668 41.5 20.994Z" fill="white" stroke="#4791D1"/>
<path d="M26.7186 11.1669H26.998C29.9326 11.3053 32.3082 13.6583 32.1685 16.7033C32.1685 16.8417 32.1685 16.9801 32.1685 17.1185C31.7492 25.1463 22.8058 30.4059 20.8494 30.8211C18.7533 30.2675 10.2291 24.3159 9.8099 17.5338C9.67016 15.8728 10.2291 14.2119 11.347 12.9662C12.1855 11.9973 13.4432 11.4437 14.7008 11.4437C16.238 11.5821 17.7751 12.2742 18.7533 13.3814L20.9892 15.596L22.9456 13.243C23.9237 12.1358 25.1814 11.3053 26.7186 11.1669ZM26.7186 8.39868C24.343 8.53709 22.2468 9.64437 20.7097 11.4437C19.1725 9.78278 16.9367 8.81391 14.7008 8.6755C12.6047 8.6755 10.6483 9.50596 9.25093 11.0285C7.71378 12.8278 6.87533 15.1808 7.01508 17.6722C7.57404 26.392 18.1944 33.5893 20.7097 33.5893H20.9892C23.5045 33.5893 34.4043 27.0841 34.9633 17.2569C35.3825 12.8278 32.1685 8.81391 27.557 8.39868C27.4173 8.39868 27.2775 8.39868 27.2775 8.39868H26.7186Z" fill="#4791D1"/>
</svg>
